<svg width="939" height="944" viewBox="0 0 939 944" fill="none" xmlns="http://www.w3.org/2000/svg">
<path d="M20.2247 363.182C37.5601 357.403 54.8954 351.625 72.2308 345.846C89.5661 340.068 108.346 334.289 125.682 328.511C143.017 322.732 160.352 316.954 177.688 309.731C182.022 308.286 184.911 306.842 187.8 305.397L176.243 290.951C170.465 282.283 163.242 275.06 156.018 266.392C148.795 257.725 143.017 250.502 135.794 241.834L115.569 218.72C108.346 211.497 101.123 202.829 93.9 195.606C79.4538 179.715 65.0077 165.269 50.5615 149.379C36.1154 134.932 21.6694 119.042 5.77858 104.596L-9.53674e-06 98.817V368.96C7.22307 367.515 14.4463 364.626 20.2247 363.182Z" fill="white"/>
<path d="M78.0094 507.643C93.9001 501.865 111.235 497.531 127.126 493.197C144.462 487.419 160.352 483.085 177.688 477.306C195.023 471.528 212.359 465.749 229.694 461.415C247.029 455.637 264.365 449.859 283.145 445.525H284.589C284.589 445.525 284.589 444.08 283.145 444.08C271.588 426.745 261.475 409.409 249.919 392.074C245.585 384.851 239.806 377.628 234.028 370.405C232.583 370.405 231.139 371.849 229.694 371.849C221.026 374.739 212.359 379.072 203.691 381.962C186.355 389.185 169.02 396.408 150.24 402.186C132.905 409.409 114.125 415.188 96.7894 420.966C78.0094 426.745 60.674 432.523 41.894 438.302C27.4478 442.635 14.4461 446.969 -5.35086e-06 449.859V532.202C10.1123 529.312 20.2247 526.423 30.337 523.534C46.2278 519.2 62.1186 513.422 78.0094 507.643Z" fill="white"/>
<path d="M488.28 614.545C495.503 608.766 502.726 601.543 509.949 594.32C522.951 582.763 535.952 569.762 547.509 558.205C560.511 546.648 573.512 535.091 585.069 522.089C596.626 509.088 609.628 497.531 621.185 484.529C634.186 472.972 645.743 458.526 657.3 445.525C668.857 432.523 680.414 419.522 691.971 406.52C703.528 393.518 713.64 379.072 725.197 366.071C736.754 353.069 746.866 338.623 756.979 324.177L772.869 303.952C777.203 298.174 781.537 290.951 785.871 285.172C771.425 296.729 754.089 308.286 736.754 319.843C725.197 327.066 712.196 335.734 699.194 344.402C686.192 351.625 671.746 360.292 657.3 368.96C654.411 370.405 650.077 373.294 647.188 374.738C642.854 376.183 639.965 379.072 635.631 380.517C628.408 384.851 621.185 387.74 612.517 392.074C605.294 396.408 596.626 400.741 589.403 403.631C582.18 407.965 573.512 412.298 564.845 415.188C548.954 422.411 531.619 429.634 515.728 438.302C507.06 442.635 498.392 445.525 489.725 449.858C481.057 452.748 472.389 457.082 463.722 459.971C449.275 465.749 433.385 471.528 418.938 477.306C423.272 484.529 427.606 491.752 431.94 500.42C442.052 520.645 452.165 539.425 462.277 559.649C472.389 579.874 481.057 597.209 488.28 614.545Z" fill="white"/>
<path d="M41.894 64.1462C50.5617 69.9247 59.2294 77.1478 67.8971 82.9262C76.5648 88.7047 85.2323 95.9278 93.9 103.151C111.235 117.597 128.571 130.598 144.462 145.045C153.129 152.268 160.352 159.491 169.02 166.714L193.579 188.383C202.246 195.606 209.469 204.274 216.692 211.497C223.915 218.72 232.583 227.388 239.806 234.611C247.029 243.279 254.252 250.502 262.92 259.169L275.922 273.615C277.366 273.615 277.366 273.615 278.811 272.171C294.702 266.392 310.592 259.169 326.483 253.391C342.374 247.612 356.82 241.834 372.711 234.611C387.157 228.832 401.603 223.054 416.049 217.275C430.495 211.497 443.497 205.719 456.499 199.94C469.5 194.162 481.057 188.383 492.614 184.049C504.171 178.271 515.728 173.937 525.84 168.159C546.065 158.046 564.845 149.379 579.291 142.155C593.737 134.932 605.294 127.709 612.517 123.375C619.74 119.042 624.074 116.152 624.074 116.152C624.074 116.152 621.185 120.486 615.406 126.265C612.517 129.154 608.183 133.488 603.849 137.822C599.515 142.155 593.737 147.934 587.959 153.712C582.18 159.491 574.957 165.269 567.734 172.492C560.511 179.715 551.843 185.494 543.175 192.717C524.395 207.163 504.171 223.054 479.612 238.945C468.056 246.168 455.054 254.835 442.052 263.503C429.051 270.726 414.605 279.394 400.159 288.062C397.269 289.506 392.935 292.395 390.046 293.84C385.712 295.285 382.823 298.174 378.489 299.619C371.266 303.952 364.043 306.842 355.375 311.175C348.152 315.509 339.485 319.843 332.262 322.732C329.372 324.177 326.483 325.622 323.594 327.066C325.039 328.511 326.483 331.4 327.928 332.845C340.929 350.18 353.931 368.96 366.932 386.295C372.711 393.519 377.045 402.186 382.823 409.409C385.712 407.965 387.157 407.965 390.046 406.52C407.382 400.742 424.717 394.963 442.052 387.74C476.723 376.183 509.949 363.182 543.175 351.625C559.066 345.846 574.957 338.623 590.848 332.845C606.739 327.066 621.185 321.288 637.075 314.065C651.522 308.286 665.968 302.508 680.414 296.729C694.86 290.951 707.862 285.172 720.863 279.394C733.865 273.615 745.422 267.837 756.979 263.503C768.536 257.725 780.092 253.391 790.205 247.612C804.651 240.389 819.097 233.166 830.654 227.388L837.877 215.831C842.211 208.608 847.989 201.385 852.323 194.162L865.325 171.048C869.659 163.825 873.992 156.602 878.326 147.934C886.994 132.043 895.662 117.597 902.885 100.262C911.552 84.3708 917.331 68.48 924.554 51.1446C925.998 48.2554 925.999 45.3662 927.443 42.477C910.108 16.4739 881.215 0.583106 849.434 0.583106H98.2339C65.0077 0.583106 36.1155 17.9185 20.2247 42.477C24.5586 52.5893 33.2263 58.3677 41.894 64.1462Z" fill="white"/>
<path d="M930.332 85.8154C928.888 94.4831 925.998 103.151 924.554 111.819C921.665 120.486 920.22 129.154 917.331 137.822L908.663 163.825C902.885 181.16 895.662 198.495 889.883 215.831C884.105 233.166 875.437 249.057 868.214 266.392C865.325 275.06 860.991 283.728 856.657 290.951L843.656 315.509C839.322 324.177 834.988 331.4 830.654 340.068L816.208 364.626C806.095 380.517 797.428 396.408 787.315 412.298C777.203 428.189 767.091 442.635 756.979 458.526C746.866 472.972 735.309 487.419 723.752 503.309C712.195 517.755 702.083 532.202 689.082 546.648C677.525 561.094 665.968 574.095 652.966 588.542C641.409 602.988 628.408 615.989 615.406 628.991C602.405 641.992 589.403 654.994 576.402 667.995C563.4 680.997 548.954 692.554 535.952 705.555C522.951 718.557 508.505 730.114 495.503 743.115L436.274 796.566L413.16 717.112L411.715 711.334L410.271 704.111L405.937 689.665C403.048 680.997 398.714 670.885 395.825 662.217C388.602 643.437 379.934 624.657 372.711 605.877C364.043 587.097 355.376 568.317 345.263 550.982C339.485 537.98 332.262 526.423 325.038 513.422C319.26 514.866 312.037 517.755 306.259 519.2C287.479 524.978 270.143 529.312 251.363 535.091C215.248 545.203 179.132 553.871 144.462 561.094C109.791 568.317 76.5646 575.54 43.3385 581.319C28.8923 584.208 14.4462 585.652 1.33514e-05 587.097V850.017C1.33514e-05 902.023 41.8939 943.917 93.9 943.917H845.1C897.106 943.917 939 902.023 939 850.017V98.817C939 87.2601 936.111 75.7031 933.222 65.5908C933.222 72.8139 931.777 78.5923 930.332 85.8154Z" fill="white"/>
</svg>
