<svg width="275" height="281" viewBox="0 0 275 281" fill="none" xmlns="http://www.w3.org/2000/svg">
<path d="M6.85745 108.199C11.9124 106.484 16.9674 104.769 22.0224 103.054C27.0774 101.339 32.5537 99.6237 37.6087 97.9087C42.6637 96.1937 47.7187 94.4787 52.7737 92.335C54.0374 91.9062 54.8799 91.4775 55.7224 91.0488L52.3525 86.7613C50.6675 84.1888 48.5612 82.045 46.4549 79.4725C44.3487 76.9 42.6637 74.7562 40.5575 72.1837L34.6599 65.3238C32.5537 63.18 30.4474 60.6075 28.3412 58.4637C24.1287 53.7475 19.9162 49.46 15.7037 44.7437C11.4912 40.4562 7.2787 35.74 2.64495 31.4525L0.959911 29.7375V109.914C3.06616 109.485 5.17245 108.628 6.85745 108.199Z" fill="#023348"/>
<path d="M23.7075 151.074C28.3413 149.359 33.3963 148.073 38.03 146.786C43.085 145.071 47.7188 143.785 52.7738 142.07C57.8288 140.355 62.8838 138.64 67.9388 137.354C72.9938 135.639 78.0488 133.924 83.525 132.637H83.9463C83.9463 132.637 83.9463 132.209 83.525 132.209C80.155 127.064 77.2063 121.919 73.8363 116.774C72.5725 114.63 70.8875 112.486 69.2025 110.343C68.7813 110.343 68.36 110.771 67.9388 110.771C65.4113 111.629 62.8838 112.915 60.3563 113.772C55.3013 115.916 50.2463 118.06 44.77 119.775C39.715 121.919 34.2388 123.634 29.1838 125.349C23.7075 127.064 18.6525 128.779 13.1763 130.494C8.96378 131.78 5.17249 133.066 0.959995 133.924V158.362C3.90874 157.505 6.85752 156.647 9.80627 155.79C14.44 154.504 19.0738 152.789 23.7075 151.074Z" fill="#023348"/>
<path d="M143.342 182.801C145.449 181.086 147.555 178.942 149.661 176.799C153.452 173.369 157.244 169.51 160.614 166.08C164.405 162.65 168.196 159.22 171.566 155.361C174.936 151.503 178.727 148.072 182.097 144.214C185.889 140.784 189.259 136.496 192.629 132.638C195.999 128.779 199.369 124.92 202.739 121.061C206.109 117.203 209.058 112.915 212.428 109.056C215.798 105.198 218.746 100.91 221.695 96.6225L226.329 90.62C227.592 88.905 228.856 86.7613 230.12 85.0463C225.907 88.4763 220.852 91.9063 215.797 95.3363C212.427 97.48 208.636 100.053 204.845 102.625C201.054 104.769 196.841 107.341 192.629 109.914C191.786 110.342 190.522 111.2 189.68 111.629C188.416 112.057 187.574 112.915 186.31 113.344C184.204 114.63 182.097 115.488 179.57 116.774C177.464 118.06 174.936 119.346 172.83 120.204C170.724 121.49 168.196 122.776 165.669 123.634C161.035 125.778 155.98 127.921 151.346 130.494C148.819 131.78 146.291 132.638 143.764 133.924C141.236 134.781 138.709 136.068 136.181 136.925C131.969 138.64 127.335 140.355 123.122 142.07C124.386 144.214 125.65 146.358 126.914 148.93C129.862 154.933 132.811 160.506 135.76 166.509C138.709 172.511 141.236 177.656 143.342 182.801Z" fill="#023348"/>
<path d="M13.1763 19.4475C15.7038 21.1625 18.2313 23.3063 20.7588 25.0213C23.2863 26.7363 25.8137 28.88 28.3412 31.0238C33.3962 35.3113 38.4512 39.17 43.085 43.4575C45.6125 45.6012 47.7188 47.745 50.2463 49.8887L57.4075 56.32C59.935 58.4637 62.0412 61.0363 64.1475 63.18C66.2537 65.3238 68.7812 67.8963 70.8875 70.04C72.9937 72.6125 75.1 74.7562 77.6275 77.3287L81.4187 81.6162C81.84 81.6162 81.84 81.6162 82.2612 81.1875C86.895 79.4725 91.5287 77.3287 96.1625 75.6137C100.796 73.8987 105.009 72.1838 109.642 70.04C113.855 68.325 118.067 66.61 122.28 64.895C126.492 63.18 130.284 61.465 134.075 59.75C137.866 58.035 141.236 56.32 144.606 55.0338C147.976 53.3188 151.346 52.0325 154.295 50.3175C160.193 47.3163 165.669 44.7437 169.881 42.6C174.094 40.4562 177.464 38.3125 179.57 37.0262C181.676 35.74 182.94 34.8825 182.94 34.8825C182.94 34.8825 182.097 36.1688 180.412 37.8838C179.57 38.7413 178.306 40.0275 177.042 41.3137C175.779 42.6 174.094 44.315 172.409 46.03C170.724 47.745 168.617 49.46 166.511 51.6037C164.405 53.7475 161.877 55.4625 159.35 57.6062C153.874 61.8937 147.976 66.61 140.815 71.3262C137.445 73.47 133.654 76.0425 129.862 78.615C126.071 80.7588 121.859 83.3312 117.646 85.9037C116.804 86.3325 115.54 87.19 114.697 87.6187C113.434 88.0475 112.591 88.905 111.328 89.3338C109.221 90.62 107.115 91.4775 104.587 92.7637C102.481 94.05 99.9537 95.3362 97.8475 96.1937C97.005 96.6225 96.1625 97.0513 95.32 97.48C95.7413 97.9088 96.1625 98.7662 96.5838 99.195C100.375 104.34 104.166 109.914 107.958 115.059C109.643 117.203 110.906 119.775 112.591 121.919C113.434 121.49 113.855 121.49 114.697 121.061C119.752 119.346 124.807 117.631 129.862 115.487C139.972 112.057 149.661 108.199 159.35 104.769C163.984 103.054 168.618 100.91 173.251 99.195C177.885 97.48 182.097 95.765 186.731 93.6213C190.944 91.9063 195.156 90.1912 199.369 88.4762C203.581 86.7612 207.373 85.0462 211.164 83.3312C214.955 81.6162 218.325 79.9013 221.695 78.615C225.065 76.9 228.435 75.6138 231.384 73.8988C235.596 71.755 239.809 69.6113 243.179 67.8963L245.285 64.4662C246.549 62.3225 248.234 60.1787 249.497 58.035L253.289 51.175C254.553 49.0312 255.816 46.8875 257.08 44.315C259.607 39.5988 262.135 35.3112 264.241 30.1662C266.769 25.45 268.454 20.7337 270.56 15.5887C270.981 14.7312 270.981 13.8737 271.403 13.0162C266.348 5.29874 257.922 0.582487 248.655 0.582487H29.605C19.9162 0.582487 11.4913 5.72749 6.85751 13.0162C8.12126 16.0175 10.6488 17.7325 13.1763 19.4475Z" fill="#023348"/>
<path d="M272.245 25.8787C271.824 28.4512 270.981 31.0237 270.56 33.5962C269.717 36.1687 269.296 38.7412 268.454 41.3137L265.926 49.0312C264.241 54.1762 262.135 59.3212 260.45 64.4662C258.765 69.6112 256.237 74.3275 254.131 79.4725C253.289 82.045 252.025 84.6175 250.761 86.7612L246.97 94.05C245.706 96.6225 244.442 98.7662 243.179 101.339L238.966 108.627C236.017 113.344 233.49 118.06 230.541 122.776C227.592 127.492 224.644 131.78 221.695 136.496C218.746 140.784 215.376 145.071 212.006 149.787C208.636 154.075 205.688 158.362 201.896 162.65C198.526 166.937 195.156 170.796 191.365 175.084C187.995 179.371 184.204 183.23 180.412 187.089C176.621 190.947 172.83 194.806 169.039 198.665C165.247 202.524 161.035 205.954 157.244 209.812C153.452 213.671 149.24 217.101 145.449 220.96L128.178 236.824L121.437 213.242L121.016 211.527L120.595 209.384L119.331 205.096C118.489 202.524 117.225 199.522 116.382 196.95C114.276 191.376 111.749 185.802 109.642 180.229C107.115 174.655 104.587 169.081 101.639 163.936C99.9537 160.077 97.8475 156.647 95.7412 152.789C94.0562 153.217 91.95 154.075 90.265 154.504C84.7888 156.219 79.7337 157.505 74.2575 159.22C63.7262 162.221 53.195 164.794 43.085 166.937C32.975 169.081 23.2862 171.225 13.5975 172.94C9.38495 173.797 5.17245 174.226 0.959955 174.655V252.687C0.959955 268.122 13.1762 280.556 28.3412 280.556H247.391C262.556 280.556 274.772 268.122 274.772 252.687V29.7375C274.772 26.3075 273.93 22.8775 273.087 19.8762C273.087 22.02 272.666 23.735 272.245 25.8787Z" fill="#023348"/>
</svg>
