<svg width="90" height="90" viewBox="0 0 90 90" fill="none" xmlns="http://www.w3.org/2000/svg">
<path d="M14.543 60.015L4.728 69.829H0V70.327H4.728L14.543 80.142V90H15.041V80.143L24.92 70.263V70.327H34.777L44.594 80.142V90H45.092V80.143L54.906 70.328H64.661L74.476 80.143V90H74.974V80.143L84.788 70.328H89.666V69.83H84.788L74.974 60.016V50.26L84.788 40.445H89.666V39.947H84.788L74.974 30.133V20.378L84.788 10.563H89.666V10.065H84.788L74.727 0L64.662 10.064H54.907L44.844 0L34.777 10.064H24.92V10.128L14.792 0L4.728 10.064H0V10.562H4.728L14.543 20.377V30.132L4.728 39.946H0V40.444H4.728L14.543 50.259V60.015ZM14.792 79.687L5.183 70.079L14.792 60.471L24.4 70.079L14.792 79.687ZM15.041 60.015V50.26L24.92 40.38V40.444H34.777L44.594 50.259V60.014L34.777 69.828H24.92V69.892L15.041 60.015ZM74.478 20.377V30.132L64.663 39.946H54.908L45.094 30.132V20.377L54.908 10.562H64.663L74.478 20.377ZM64.662 69.829H54.907L45.093 60.015V50.26L54.907 40.445H64.662L74.477 50.26V60.015L64.662 69.829ZM44.844 30.587L54.452 40.195L44.844 49.804L35.233 40.195L44.844 30.587ZM44.844 79.687L35.233 70.079L44.844 60.471L54.452 70.079L44.844 79.687ZM74.727 79.687L65.118 70.079L74.727 60.471L84.335 70.079L74.727 79.687ZM74.727 49.805L65.118 40.196L74.727 30.588L84.335 40.196L74.727 49.805ZM74.727 0.704L84.335 10.313L74.727 19.922L65.118 10.313L74.727 0.704ZM44.844 0.704L54.452 10.313L44.844 19.922L35.233 10.313L44.844 0.704ZM34.777 10.562L44.594 20.377V30.132L34.777 39.946H24.92V40.01L15.041 30.132V20.377L24.92 10.498V10.562H34.777ZM14.792 0.704L24.4 10.313L14.792 19.922L5.183 10.313L14.792 0.704ZM14.792 30.587L24.4 40.195L14.792 49.804L5.183 40.195L14.792 30.587Z" fill="white"/>
</svg>
